# xmcd CD database file
#
# Track frame offsets:
#	150
#	23002
#	45397
#	65572
#	84835
#	106607
#	125700
#	145127
#	165507
#	183680
#
# Disc length: 2739 seconds
#
# Revision: 0
# Processed by: cddbd v1.5.1PL0 Copyright (c) Steve Scherf et al.
# Submitted via: CDex 1.51
#
DISCID=7a0ab10a
DTITLE=山下達郎 - Down to the Resort 避暑地まで
DYEAR=1900
DGENRE=JPop
TTITLE0=さよなら夏の日
TTITLE1=Loveland Island
TTITLE2=あまく危険な香り
TTITLE3=高気圧ガール
TTITLE4=ターナーの汽缶車
TTITLE5=The Wispering SEa 潮騒
TTITLE6=Let's Dance Baby
TTITLE7=Let's Kiss The Sun 愛を描いて
TTITLE8=Ride On Time
TTITLE9=Morning Glory
EXTD=
EXTT0=
EXTT1=
EXTT2=
EXTT3=
EXTT4=
EXTT5=
EXTT6=
EXTT7=
EXTT8=
EXTT9=
PLAYORDER=
